<mxfile host="app.diagrams.net" modified="2023-12-14T12:21:07.643Z" agent="Mozilla/5.0 (Windows NT 10.0; Win64; x64) AppleWebKit/537.36 (KHTML, like Gecko) Chrome/119.0.0.0 Safari/537.36 Edg/119.0.0.0" etag="RVy9Lt6ZyEM-_lKGb3Fk" version="22.1.7" type="github">
  <diagram name="Page-1" id="b5b7bab2-c9e2-2cf4-8b2a-24fd1a2a6d21">
    <mxGraphModel dx="1042" dy="1738" grid="1" gridSize="10" guides="1" tooltips="1" connect="1" arrows="1" fold="1" page="1" pageScale="1" pageWidth="827" pageHeight="1169" background="none" math="0" shadow="0">
      <root>
        <mxCell id="0" />
        <mxCell id="1" parent="0" />
        <mxCell id="6e0c8c40b5770093-73" value="&amp;lt;&amp;lt;service&amp;gt;&amp;gt;" style="text;html=1;align=left;verticalAlign=top;spacingTop=-4;fontSize=10;fontFamily=Verdana;labelBackgroundColor=none;fontColor=#1D3557;" parent="1" vertex="1">
          <mxGeometry x="20" y="-1140" width="130" height="20" as="geometry" />
        </mxCell>
        <mxCell id="0LYC2R8pjvAZ-9sblbZq-2" value="tbl_room" style="swimlane;fontStyle=0;childLayout=stackLayout;horizontal=1;startSize=30;horizontalStack=0;resizeParent=1;resizeParentMax=0;resizeLast=0;collapsible=1;marginBottom=0;whiteSpace=wrap;html=1;fillColor=#A8DADC;strokeColor=#457B9D;labelBackgroundColor=none;fontColor=#1D3557;" vertex="1" parent="1">
          <mxGeometry x="20" y="-1030" width="140" height="210" as="geometry">
            <mxRectangle x="40" y="120" width="90" height="30" as="alternateBounds" />
          </mxGeometry>
        </mxCell>
        <mxCell id="0LYC2R8pjvAZ-9sblbZq-3" value="id" style="text;strokeColor=none;fillColor=none;align=left;verticalAlign=middle;spacingLeft=4;spacingRight=4;overflow=hidden;points=[[0,0.5],[1,0.5]];portConstraint=eastwest;rotatable=0;whiteSpace=wrap;html=1;labelBackgroundColor=none;fontColor=#1D3557;" vertex="1" parent="0LYC2R8pjvAZ-9sblbZq-2">
          <mxGeometry y="30" width="140" height="30" as="geometry" />
        </mxCell>
        <mxCell id="0LYC2R8pjvAZ-9sblbZq-4" value="name" style="text;strokeColor=none;fillColor=none;align=left;verticalAlign=middle;spacingLeft=4;spacingRight=4;overflow=hidden;points=[[0,0.5],[1,0.5]];portConstraint=eastwest;rotatable=0;whiteSpace=wrap;html=1;labelBackgroundColor=none;fontColor=#1D3557;" vertex="1" parent="0LYC2R8pjvAZ-9sblbZq-2">
          <mxGeometry y="60" width="140" height="30" as="geometry" />
        </mxCell>
        <mxCell id="0LYC2R8pjvAZ-9sblbZq-5" value="img" style="text;strokeColor=none;fillColor=none;align=left;verticalAlign=middle;spacingLeft=4;spacingRight=4;overflow=hidden;points=[[0,0.5],[1,0.5]];portConstraint=eastwest;rotatable=0;whiteSpace=wrap;html=1;labelBackgroundColor=none;fontColor=#1D3557;" vertex="1" parent="0LYC2R8pjvAZ-9sblbZq-2">
          <mxGeometry y="90" width="140" height="30" as="geometry" />
        </mxCell>
        <mxCell id="0LYC2R8pjvAZ-9sblbZq-8" value="deleted" style="text;strokeColor=none;fillColor=none;align=left;verticalAlign=middle;spacingLeft=4;spacingRight=4;overflow=hidden;points=[[0,0.5],[1,0.5]];portConstraint=eastwest;rotatable=0;whiteSpace=wrap;html=1;labelBackgroundColor=none;fontColor=#1D3557;" vertex="1" parent="0LYC2R8pjvAZ-9sblbZq-2">
          <mxGeometry y="120" width="140" height="30" as="geometry" />
        </mxCell>
        <mxCell id="0LYC2R8pjvAZ-9sblbZq-9" value="deleted_guid" style="text;strokeColor=none;fillColor=none;align=left;verticalAlign=middle;spacingLeft=4;spacingRight=4;overflow=hidden;points=[[0,0.5],[1,0.5]];portConstraint=eastwest;rotatable=0;whiteSpace=wrap;html=1;labelBackgroundColor=none;fontColor=#1D3557;" vertex="1" parent="0LYC2R8pjvAZ-9sblbZq-2">
          <mxGeometry y="150" width="140" height="30" as="geometry" />
        </mxCell>
        <mxCell id="0LYC2R8pjvAZ-9sblbZq-10" value="creator_guid" style="text;strokeColor=none;fillColor=none;align=left;verticalAlign=middle;spacingLeft=4;spacingRight=4;overflow=hidden;points=[[0,0.5],[1,0.5]];portConstraint=eastwest;rotatable=0;whiteSpace=wrap;html=1;labelBackgroundColor=none;fontColor=#1D3557;" vertex="1" parent="0LYC2R8pjvAZ-9sblbZq-2">
          <mxGeometry y="180" width="140" height="30" as="geometry" />
        </mxCell>
        <mxCell id="0LYC2R8pjvAZ-9sblbZq-11" value="tbl_device_schedule" style="swimlane;fontStyle=0;childLayout=stackLayout;horizontal=1;startSize=30;horizontalStack=0;resizeParent=1;resizeParentMax=0;resizeLast=0;collapsible=1;marginBottom=0;whiteSpace=wrap;html=1;fillColor=#A8DADC;strokeColor=#457B9D;labelBackgroundColor=none;fontColor=#1D3557;" vertex="1" parent="1">
          <mxGeometry x="20" y="-770" width="140" height="210" as="geometry">
            <mxRectangle x="40" y="120" width="90" height="30" as="alternateBounds" />
          </mxGeometry>
        </mxCell>
        <mxCell id="0LYC2R8pjvAZ-9sblbZq-12" value="id" style="text;strokeColor=none;fillColor=none;align=left;verticalAlign=middle;spacingLeft=4;spacingRight=4;overflow=hidden;points=[[0,0.5],[1,0.5]];portConstraint=eastwest;rotatable=0;whiteSpace=wrap;html=1;labelBackgroundColor=none;fontColor=#1D3557;" vertex="1" parent="0LYC2R8pjvAZ-9sblbZq-11">
          <mxGeometry y="30" width="140" height="30" as="geometry" />
        </mxCell>
        <mxCell id="0LYC2R8pjvAZ-9sblbZq-13" value="name" style="text;strokeColor=none;fillColor=none;align=left;verticalAlign=middle;spacingLeft=4;spacingRight=4;overflow=hidden;points=[[0,0.5],[1,0.5]];portConstraint=eastwest;rotatable=0;whiteSpace=wrap;html=1;labelBackgroundColor=none;fontColor=#1D3557;" vertex="1" parent="0LYC2R8pjvAZ-9sblbZq-11">
          <mxGeometry y="60" width="140" height="30" as="geometry" />
        </mxCell>
        <mxCell id="0LYC2R8pjvAZ-9sblbZq-14" value="img" style="text;strokeColor=none;fillColor=none;align=left;verticalAlign=middle;spacingLeft=4;spacingRight=4;overflow=hidden;points=[[0,0.5],[1,0.5]];portConstraint=eastwest;rotatable=0;whiteSpace=wrap;html=1;labelBackgroundColor=none;fontColor=#1D3557;" vertex="1" parent="0LYC2R8pjvAZ-9sblbZq-11">
          <mxGeometry y="90" width="140" height="30" as="geometry" />
        </mxCell>
        <mxCell id="0LYC2R8pjvAZ-9sblbZq-15" value="deleted" style="text;strokeColor=none;fillColor=none;align=left;verticalAlign=middle;spacingLeft=4;spacingRight=4;overflow=hidden;points=[[0,0.5],[1,0.5]];portConstraint=eastwest;rotatable=0;whiteSpace=wrap;html=1;labelBackgroundColor=none;fontColor=#1D3557;" vertex="1" parent="0LYC2R8pjvAZ-9sblbZq-11">
          <mxGeometry y="120" width="140" height="30" as="geometry" />
        </mxCell>
        <mxCell id="0LYC2R8pjvAZ-9sblbZq-16" value="deleted_guid" style="text;strokeColor=none;fillColor=none;align=left;verticalAlign=middle;spacingLeft=4;spacingRight=4;overflow=hidden;points=[[0,0.5],[1,0.5]];portConstraint=eastwest;rotatable=0;whiteSpace=wrap;html=1;labelBackgroundColor=none;fontColor=#1D3557;" vertex="1" parent="0LYC2R8pjvAZ-9sblbZq-11">
          <mxGeometry y="150" width="140" height="30" as="geometry" />
        </mxCell>
        <mxCell id="0LYC2R8pjvAZ-9sblbZq-17" value="creator_guid" style="text;strokeColor=none;fillColor=none;align=left;verticalAlign=middle;spacingLeft=4;spacingRight=4;overflow=hidden;points=[[0,0.5],[1,0.5]];portConstraint=eastwest;rotatable=0;whiteSpace=wrap;html=1;labelBackgroundColor=none;fontColor=#1D3557;" vertex="1" parent="0LYC2R8pjvAZ-9sblbZq-11">
          <mxGeometry y="180" width="140" height="30" as="geometry" />
        </mxCell>
        <mxCell id="0LYC2R8pjvAZ-9sblbZq-18" value="admin" style="swimlane;whiteSpace=wrap;html=1;fillColor=#A8DADC;strokeColor=#457B9D;labelBackgroundColor=none;fontColor=#1D3557;" vertex="1" parent="1">
          <mxGeometry x="390" y="-850" width="870" height="200" as="geometry" />
        </mxCell>
        <mxCell id="0LYC2R8pjvAZ-9sblbZq-19" value="TableUsers()" style="text;html=1;align=center;verticalAlign=middle;resizable=0;points=[];autosize=1;strokeColor=none;fillColor=none;labelBackgroundColor=none;fontColor=#1D3557;" vertex="1" parent="0LYC2R8pjvAZ-9sblbZq-18">
          <mxGeometry y="28" width="90" height="30" as="geometry" />
        </mxCell>
        <mxCell id="0LYC2R8pjvAZ-9sblbZq-21" value="SetPresence(id: int)" style="text;html=1;align=center;verticalAlign=middle;resizable=0;points=[];autosize=1;strokeColor=none;fillColor=none;labelBackgroundColor=none;fontColor=#1D3557;" vertex="1" parent="0LYC2R8pjvAZ-9sblbZq-18">
          <mxGeometry y="58" width="130" height="30" as="geometry" />
        </mxCell>
        <mxCell id="0LYC2R8pjvAZ-9sblbZq-20" value="GetDeviceSchedules(room: string; dev: string)" style="text;html=1;align=center;verticalAlign=middle;resizable=0;points=[];autosize=1;strokeColor=none;fillColor=none;labelBackgroundColor=none;fontColor=#1D3557;" vertex="1" parent="0LYC2R8pjvAZ-9sblbZq-18">
          <mxGeometry y="88" width="270" height="30" as="geometry" />
        </mxCell>
        <mxCell id="0LYC2R8pjvAZ-9sblbZq-23" value="makePhoneSchedule(type: string; data_start: string; data_end: string; device: string; room: string; guid: string)" style="text;html=1;align=center;verticalAlign=middle;resizable=0;points=[];autosize=1;strokeColor=none;fillColor=none;labelBackgroundColor=none;fontColor=#1D3557;" vertex="1" parent="0LYC2R8pjvAZ-9sblbZq-18">
          <mxGeometry y="118" width="610" height="30" as="geometry" />
        </mxCell>
        <mxCell id="0LYC2R8pjvAZ-9sblbZq-24" value="user" style="swimlane;whiteSpace=wrap;html=1;fillColor=#A8DADC;strokeColor=#457B9D;labelBackgroundColor=none;fontColor=#1D3557;" vertex="1" parent="1">
          <mxGeometry x="390" y="-1110" width="870" height="220" as="geometry" />
        </mxCell>
        <mxCell id="0LYC2R8pjvAZ-9sblbZq-25" value="SelectMyRooms(guid: string; deleted: bool )" style="text;html=1;align=center;verticalAlign=middle;resizable=0;points=[];autosize=1;strokeColor=none;fillColor=none;labelBackgroundColor=none;fontColor=#1D3557;" vertex="1" parent="0LYC2R8pjvAZ-9sblbZq-24">
          <mxGeometry y="28" width="260" height="30" as="geometry" />
        </mxCell>
        <mxCell id="0LYC2R8pjvAZ-9sblbZq-26" value="SelectRoom(id: int)" style="text;html=1;align=center;verticalAlign=middle;resizable=0;points=[];autosize=1;strokeColor=none;fillColor=none;labelBackgroundColor=none;fontColor=#1D3557;" vertex="1" parent="0LYC2R8pjvAZ-9sblbZq-24">
          <mxGeometry y="58" width="130" height="30" as="geometry" />
        </mxCell>
        <mxCell id="0LYC2R8pjvAZ-9sblbZq-27" value="GetDeviceSchedules(room: string; dev: string)&amp;nbsp;GetDeviceSchedulesResult(room: string; dev: string; schedules:array; src: string)" style="text;html=1;align=center;verticalAlign=middle;resizable=0;points=[];autosize=1;strokeColor=none;fillColor=none;labelBackgroundColor=none;fontColor=#1D3557;" vertex="1" parent="0LYC2R8pjvAZ-9sblbZq-24">
          <mxGeometry y="88" width="700" height="30" as="geometry" />
        </mxCell>
        <mxCell id="0LYC2R8pjvAZ-9sblbZq-28" value="InsertDeviceSchedule(type: string; data_start: string; data_end: string; device: string; room: string; guid: string) InsertDeviceScheduleSuccess(id: int)&amp;nbsp;" style="text;html=1;align=center;verticalAlign=middle;resizable=0;points=[];autosize=1;strokeColor=none;fillColor=none;labelBackgroundColor=none;fontColor=#1D3557;" vertex="1" parent="0LYC2R8pjvAZ-9sblbZq-24">
          <mxGeometry y="118" width="810" height="30" as="geometry" />
        </mxCell>
        <mxCell id="0LYC2R8pjvAZ-9sblbZq-37" value="UpdateDeviceSchedule(type: string; data_start: string; data_end: string; device: string; room: string; id: int) UpdateDeviceScheduleSuccess(id: int)" style="text;html=1;align=center;verticalAlign=middle;resizable=0;points=[];autosize=1;strokeColor=none;fillColor=none;labelBackgroundColor=none;fontColor=#1D3557;" vertex="1" parent="0LYC2R8pjvAZ-9sblbZq-24">
          <mxGeometry y="148" width="800" height="30" as="geometry" />
        </mxCell>
        <mxCell id="0LYC2R8pjvAZ-9sblbZq-38" value="DeleteDeviceSchedule(id: int) DeleteDeviceScheduleSuccess(id: int)" style="text;html=1;align=center;verticalAlign=middle;resizable=0;points=[];autosize=1;strokeColor=none;fillColor=none;labelBackgroundColor=none;fontColor=#1D3557;" vertex="1" parent="0LYC2R8pjvAZ-9sblbZq-24">
          <mxGeometry y="178" width="390" height="30" as="geometry" />
        </mxCell>
        <mxCell id="0LYC2R8pjvAZ-9sblbZq-31" style="edgeStyle=orthogonalEdgeStyle;rounded=0;orthogonalLoop=1;jettySize=auto;html=1;strokeColor=#457B9D;fontColor=#1D3557;fillColor=#A8DADC;" edge="1" parent="1" source="0LYC2R8pjvAZ-9sblbZq-25" target="0LYC2R8pjvAZ-9sblbZq-2">
          <mxGeometry relative="1" as="geometry" />
        </mxCell>
        <mxCell id="0LYC2R8pjvAZ-9sblbZq-32" style="edgeStyle=orthogonalEdgeStyle;rounded=0;orthogonalLoop=1;jettySize=auto;html=1;entryX=1.007;entryY=0.085;entryDx=0;entryDy=0;entryPerimeter=0;strokeColor=#457B9D;fontColor=#1D3557;fillColor=#A8DADC;" edge="1" parent="1" source="0LYC2R8pjvAZ-9sblbZq-27" target="0LYC2R8pjvAZ-9sblbZq-11">
          <mxGeometry relative="1" as="geometry" />
        </mxCell>
        <mxCell id="0LYC2R8pjvAZ-9sblbZq-33" style="edgeStyle=orthogonalEdgeStyle;rounded=0;orthogonalLoop=1;jettySize=auto;html=1;entryX=1.007;entryY=0.052;entryDx=0;entryDy=0;entryPerimeter=0;strokeColor=#457B9D;fontColor=#1D3557;fillColor=#A8DADC;" edge="1" parent="1" source="0LYC2R8pjvAZ-9sblbZq-28" target="0LYC2R8pjvAZ-9sblbZq-11">
          <mxGeometry relative="1" as="geometry">
            <Array as="points">
              <mxPoint x="280" y="-987" />
              <mxPoint x="280" y="-759" />
            </Array>
          </mxGeometry>
        </mxCell>
        <mxCell id="0LYC2R8pjvAZ-9sblbZq-30" style="edgeStyle=orthogonalEdgeStyle;rounded=0;orthogonalLoop=1;jettySize=auto;html=1;exitX=0;exitY=0.357;exitDx=0;exitDy=0;exitPerimeter=0;labelBackgroundColor=none;strokeColor=#457B9D;fontColor=default;entryX=1.003;entryY=0.079;entryDx=0;entryDy=0;entryPerimeter=0;" edge="1" parent="1" source="0LYC2R8pjvAZ-9sblbZq-26" target="0LYC2R8pjvAZ-9sblbZq-2">
          <mxGeometry relative="1" as="geometry">
            <mxPoint x="170" y="-1000" as="targetPoint" />
            <Array as="points">
              <mxPoint x="250" y="-1031" />
              <mxPoint x="250" y="-1013" />
            </Array>
          </mxGeometry>
        </mxCell>
      </root>
    </mxGraphModel>
  </diagram>
</mxfile>
